<?xml version="1.0" encoding="UTF-8"?>
<svg xmlns="http://www.w3.org/2000/svg" viewBox="0 0 550 256" width="550" height="256" role="img" aria-labelledby="title desc">
  <title id="title">nib</title>
  <desc id="desc">The nib wordmark paired with a minimal geometric fountain pen nib.</desc>
  <g fill="#eef3ec">
    <rect x="74" y="27" width="108" height="18" rx="5"/>
    <path fill-rule="evenodd" clip-rule="evenodd" d="M76 58 H180 Q183 58 184.5 61 L211 116 Q213.5 121 210.5 125 L133 226 Q128 232 123 226 L45.5 125 Q42.5 121 45 116 L71.5 61 Q73 58 76 58 Z M128 98 C136.284 98 143 104.716 143 113 C143 120.06 138.12 126.15 132 127.68 L132 228 L124 228 L124 127.68 C117.88 126.15 113 120.06 113 113 C113 104.716 119.716 98 128 98 Z"/>
  </g>
  <g fill="#eef3ec" transform="translate(245 190) scale(0.09 -0.09)">
      <path d="M368 662C368 839 478 940 628 940C774 940 864 844 864 683V0H1084V710C1084 986 932 1132 704 1132C546 1132 429 1061 359 903L358 1118H148V0H368Z" transform="translate(0 0)"/>
      <path d="M148 0H368V1118H148ZM259 1289C335 1289 398 1347 398 1419C398 1492 335 1550 259 1550C183 1550 120 1492 120 1419C120 1347 183 1289 259 1289Z" transform="translate(1232 0)"/>
      <path d="M703 -22C975 -22 1170 195 1170 556C1170 920 971 1132 703 1132C494 1132 419 1005 380 936H368V1490H148V0H362V175H380C419 104 500 -22 703 -22ZM654 165C468 165 364 325 364 558C364 790 465 945 654 945C848 945 945 778 945 558C945 336 845 165 654 165Z" transform="translate(1748 0)"/>
  </g>
</svg>
